<svg width="546" height="369" viewBox="0 0 546 369" fill="none" xmlns="http://www.w3.org/2000/svg">
<g filter="url(#filter0_ddd_82_142867)">
<path fill-rule="evenodd" clip-rule="evenodd" d="M198.525 142.436C220.42 143.821 244.522 135.852 261.357 150.436C279.027 165.745 279.389 192.009 282.973 215.596C287.631 246.252 301.696 279.475 284.862 305.132C266.492 333.132 231.171 343.448 198.525 344.306C165.015 345.187 129.207 336.451 107.696 309.791C87.2922 284.502 90.8085 248.325 94.6764 215.596C97.9741 187.693 105.106 157.767 127.529 141.97C147.88 127.633 173.969 140.883 198.525 142.436Z" fill="#FCFAF1"/>
<path fill-rule="evenodd" clip-rule="evenodd" d="M132.36 56.7045C164.398 59.0877 189.902 86.0535 203.842 116.037C214.766 139.532 199.512 164.235 194.207 189.728C188.75 215.949 194.204 247.321 173.244 263.066C149.196 281.131 116.332 280.349 88.7379 268.958C58.454 256.457 31.2078 233.649 22.8753 200.994C14.2449 167.172 25.8666 131.852 46.7349 104.35C67.8015 76.5867 98.3629 54.1755 132.36 56.7045Z" fill="#FCFAF1"/>
<path fill-rule="evenodd" clip-rule="evenodd" d="M169.376 76.4013C191.641 66.4334 215.669 71.1047 238.46 79.7036C262.421 88.7442 290.402 98.9675 296.917 124.523C303.306 149.583 282.072 170.935 266.988 191.609C253.181 210.534 239.178 230.722 216.597 234.611C191.54 238.926 166.186 229.996 147.473 212.191C126.467 192.206 108.172 165.077 112.874 135.926C117.533 107.041 143.439 88.0127 169.376 76.4013Z" fill="#FCFAF1"/>
<path fill-rule="evenodd" clip-rule="evenodd" d="M286.94 69.9292C305.451 71.8298 321.188 84.0961 331.074 100.431C339.667 114.629 339.167 132.141 334.255 148.11C329.893 162.29 319.453 172.618 306.74 179.536C293.303 186.85 278.137 192 263.968 186.363C248.438 180.184 237.85 166.081 232.179 149.871C225.28 130.149 218.571 107.188 230.288 90.0833C242.449 72.3298 266.037 67.7831 286.94 69.9292Z" fill="#FCFAF1"/>
<path fill-rule="evenodd" clip-rule="evenodd" d="M316.946 142.524C335.829 143.143 356.907 137.607 370.095 151.629C384.315 166.748 385.869 190.215 381.111 210.747C376.424 230.974 363.583 248.01 345.614 257.274C327.347 266.692 305.39 269.125 287.463 259.028C270.36 249.396 264.913 228.562 259.981 209.043C254.747 188.332 245.693 164.008 259.404 147.997C272.857 132.288 296.692 141.859 316.946 142.524Z" fill="#FCFAF1"/>
<path fill-rule="evenodd" clip-rule="evenodd" d="M233.011 19.8311C267.094 12.9013 304.026 15.1235 330.386 38.5632C358.236 63.3281 378.404 103.346 367.92 139.795C358.437 172.76 316.824 175.678 286.756 190.243C265.278 200.648 245.223 215.566 222.032 210.467C195.8 204.699 172.793 187.613 161.084 162.611C147.927 134.517 143.997 101.307 157.943 73.6235C172.756 44.2185 201.604 26.2165 233.011 19.8311Z" fill="#FCFAF1"/>
<path fill-rule="evenodd" clip-rule="evenodd" d="M388.123 43.3142C422.207 36.3845 459.139 38.6067 485.499 62.0464C513.349 86.8113 533.516 126.829 523.032 163.278C513.55 196.243 471.937 199.161 441.869 213.727C420.391 224.131 400.335 239.049 377.144 233.95C350.912 228.182 327.906 211.097 316.196 186.094C303.039 158 299.11 124.79 313.056 97.1067C327.869 67.7017 356.717 49.6997 388.123 43.3142Z" fill="#FCFAF1"/>
<path fill-rule="evenodd" clip-rule="evenodd" d="M274.748 177.845C291.639 148.902 331.117 153.522 363.389 148.508C386.78 144.873 410.385 140.981 430.652 153.621C452.309 167.127 467.487 189.618 470.926 215.574C474.632 243.55 467.267 271.812 449.096 292.851C428.584 316.6 400.809 334.056 370.104 332.31C335.925 330.367 303.058 313.386 284.608 283.498C265.252 252.143 256.16 209.695 274.748 177.845Z" fill="#FCFAF1"/>
<path fill-rule="evenodd" clip-rule="evenodd" d="M180.039 214.158C179.355 180.961 214.42 163.268 238.624 141.519C256.168 125.755 273.758 109.66 296.968 109.088C321.771 108.476 345.762 118.843 361.78 138.482C379.045 159.649 387.279 187.088 382.892 214.432C377.94 245.299 363.774 274.909 337.439 290.201C308.125 307.223 272.268 311.066 241.813 296.352C209.862 280.916 180.791 250.69 180.039 214.158Z" fill="#FCFAF1"/>
<path fill-rule="evenodd" clip-rule="evenodd" d="M413.347 224.227C412.988 206.79 431.406 197.497 444.119 186.073C453.334 177.792 462.573 169.339 474.765 169.038C487.793 168.717 500.394 174.162 508.808 184.477C517.876 195.596 522.201 210.008 519.897 224.371C517.296 240.584 509.855 256.137 496.022 264.169C480.625 273.11 461.791 275.128 445.794 267.4C429.012 259.292 413.742 243.416 413.347 224.227Z" fill="#FCFAF1"/>
<path fill-rule="evenodd" clip-rule="evenodd" d="M69.5033 206.726C85.3082 200.745 99.7382 215.816 114.272 224.602C124.807 230.971 135.508 237.307 139.718 249.171C144.216 261.849 143.311 275.97 136.609 287.555C129.384 300.041 117.62 308.936 103.763 311.311C88.1199 313.992 71.5177 311.712 59.7189 300.733C46.5855 288.512 38.6634 270.685 40.5566 252.496C42.5427 233.413 52.1103 213.307 69.5033 206.726Z" fill="#FCFAF1"/>
<path fill-rule="evenodd" clip-rule="evenodd" d="M203.357 147.439C223.925 148.741 246.564 141.255 262.378 154.954C278.977 169.334 279.317 194.006 282.683 216.162C287.059 244.958 300.271 276.166 284.458 300.268C267.202 326.569 234.023 336.26 203.357 337.066C171.88 337.893 138.244 329.687 118.038 304.643C98.8709 280.888 102.174 246.906 105.807 216.162C108.905 189.951 115.604 161.84 136.668 147.001C155.784 133.534 180.29 145.98 203.357 147.439Z" fill="#F9D67B"/>
<path fill-rule="evenodd" clip-rule="evenodd" d="M141.206 66.9076C171.301 69.1463 195.258 94.4765 208.352 122.642C218.613 144.712 204.285 167.916 199.301 191.863C194.175 216.494 199.298 245.963 179.61 260.753C157.021 277.723 126.149 276.988 100.229 266.288C71.7819 254.545 46.1882 233.12 38.3611 202.446C30.2541 170.675 41.171 137.498 60.7735 111.664C80.5624 85.5839 109.27 64.532 141.206 66.9076Z" fill="#F9D67B"/>
<path fill-rule="evenodd" clip-rule="evenodd" d="M175.976 85.4097C196.891 76.0464 219.462 80.4344 240.87 88.5117C263.378 97.004 289.662 106.607 295.782 130.613C301.784 154.153 281.837 174.209 267.668 193.63C254.698 211.407 241.545 230.371 220.334 234.024C196.796 238.077 172.98 229.688 155.401 212.964C135.67 194.19 118.484 168.707 122.901 141.324C127.278 114.191 151.613 96.3169 175.976 85.4097Z" fill="#F9D67B"/>
<path fill-rule="evenodd" clip-rule="evenodd" d="M286.409 79.3301C303.798 81.1155 318.581 92.6378 327.867 107.982C335.939 121.319 335.469 137.769 330.855 152.769C326.758 166.089 316.95 175.791 305.009 182.29C292.386 189.159 278.141 193.997 264.831 188.702C250.243 182.898 240.297 169.651 234.971 154.424C228.49 135.898 222.187 114.33 233.194 98.2619C244.617 81.5851 266.774 77.3142 286.409 79.3301Z" fill="#F9D67B"/>
<path fill-rule="evenodd" clip-rule="evenodd" d="M314.596 147.522C332.333 148.104 352.133 142.903 364.521 156.075C377.879 170.277 379.339 192.321 374.869 211.607C370.466 230.608 358.404 246.61 341.525 255.312C324.366 264.159 303.741 266.444 286.901 256.96C270.836 247.912 265.719 228.341 261.086 210.007C256.169 190.552 247.664 167.703 260.544 152.663C273.181 137.907 295.57 146.898 314.596 147.522Z" fill="#F9D67B"/>
<path fill-rule="evenodd" clip-rule="evenodd" d="M235.752 32.2705C267.768 25.7611 302.46 27.8485 327.221 49.8666C353.382 73.1294 372.327 110.72 362.478 144.958C353.571 175.924 314.482 178.665 286.237 192.347C266.062 202.12 247.223 216.134 225.439 211.344C200.797 205.926 179.187 189.877 168.187 166.39C155.828 140.001 152.137 108.804 165.237 82.8004C179.152 55.1789 206.25 38.2687 235.752 32.2705Z" fill="#F9D67B"/>
<path fill-rule="evenodd" clip-rule="evenodd" d="M381.456 54.3294C413.473 47.82 448.164 49.9074 472.926 71.9255C499.086 95.1883 518.031 132.779 508.183 167.017C499.276 197.983 460.186 200.724 431.942 214.406C411.767 224.179 392.928 238.193 371.143 233.403C346.502 227.984 324.891 211.936 313.892 188.449C301.533 162.06 297.842 130.863 310.942 104.859C324.856 77.2378 351.954 60.3276 381.456 54.3294Z" fill="#F9D67B"/>
<path fill-rule="evenodd" clip-rule="evenodd" d="M274.958 180.701C290.824 153.514 327.908 157.853 358.222 153.143C380.195 149.729 402.368 146.072 421.406 157.946C441.75 170.633 456.007 191.76 459.237 216.142C462.718 242.421 455.8 268.968 438.731 288.731C419.463 311.04 393.373 327.437 364.53 325.797C332.424 323.972 301.551 308.021 284.22 279.946C266.037 250.493 257.497 210.62 274.958 180.701Z" fill="#F9D67B"/>
<path fill-rule="evenodd" clip-rule="evenodd" d="M185.992 214.811C185.35 183.628 218.288 167.008 241.024 146.578C257.504 131.77 274.027 116.651 295.83 116.113C319.128 115.539 341.664 125.277 356.711 143.725C372.928 163.609 380.663 189.383 376.542 215.069C371.89 244.063 358.584 271.877 333.846 286.242C306.31 302.232 272.628 305.842 244.02 292.02C214.007 277.521 186.699 249.128 185.992 214.811Z" fill="#F9D67B"/>
<path fill-rule="evenodd" clip-rule="evenodd" d="M405.15 224.269C404.813 207.89 422.113 199.16 434.056 188.429C442.712 180.651 451.391 172.71 462.843 172.428C475.08 172.126 486.917 177.241 494.821 186.931C503.339 197.375 507.402 210.913 505.237 224.405C502.794 239.634 495.805 254.244 482.811 261.789C468.347 270.188 450.656 272.084 435.629 264.824C419.865 257.208 405.521 242.294 405.15 224.269Z" fill="#F9D67B"/>
<path fill-rule="evenodd" clip-rule="evenodd" d="M82.161 207.83C97.0074 202.212 110.562 216.369 124.215 224.622C134.111 230.604 144.163 236.556 148.117 247.701C152.342 259.61 151.493 272.874 145.196 283.756C138.41 295.485 127.36 303.841 114.343 306.072C99.6484 308.59 84.0532 306.448 72.9701 296.135C60.6332 284.655 53.1916 267.91 54.97 250.824C56.8356 232.898 65.8229 214.012 82.161 207.83Z" fill="#F9D67B"/>
</g>
<defs>
<filter id="filter0_ddd_82_142867" x="0" y="0.38385" width="545.849" height="367.982" filterUnits="userSpaceOnUse" color-interpolation-filters="sRGB">
<feFlood flood-opacity="0" result="BackgroundImageFix"/>
<feColorMatrix in="SourceAlpha" type="matrix" values="0 0 0 0 0 0 0 0 0 0 0 0 0 0 0 0 0 0 127 0" result="hardAlpha"/>
<feOffset dy="4"/>
<feGaussianBlur stdDeviation="10"/>
<feComposite in2="hardAlpha" operator="out"/>
<feColorMatrix type="matrix" values="0 0 0 0 0 0 0 0 0 0 0 0 0 0 0 0 0 0 0.25 0"/>
<feBlend mode="normal" in2="BackgroundImageFix" result="effect1_dropShadow_82_142867"/>
<feColorMatrix in="SourceAlpha" type="matrix" values="0 0 0 0 0 0 0 0 0 0 0 0 0 0 0 0 0 0 127 0" result="hardAlpha"/>
<feOffset dy="4"/>
<feGaussianBlur stdDeviation="5"/>
<feComposite in2="hardAlpha" operator="out"/>
<feColorMatrix type="matrix" values="0 0 0 0 0 0 0 0 0 0 0 0 0 0 0 0 0 0 0.25 0"/>
<feBlend mode="normal" in2="effect1_dropShadow_82_142867" result="effect2_dropShadow_82_142867"/>
<feColorMatrix in="SourceAlpha" type="matrix" values="0 0 0 0 0 0 0 0 0 0 0 0 0 0 0 0 0 0 127 0" result="hardAlpha"/>
<feOffset dy="4"/>
<feGaussianBlur stdDeviation="2"/>
<feComposite in2="hardAlpha" operator="out"/>
<feColorMatrix type="matrix" values="0 0 0 0 0 0 0 0 0 0 0 0 0 0 0 0 0 0 0.25 0"/>
<feBlend mode="normal" in2="effect2_dropShadow_82_142867" result="effect3_dropShadow_82_142867"/>
<feBlend mode="normal" in="SourceGraphic" in2="effect3_dropShadow_82_142867" result="shape"/>
</filter>
</defs>
</svg>
