<?xml version="1.0" encoding="UTF-8"?>
<svg viewBox="0 0 906 589" xmlns="http://www.w3.org/2000/svg">
<path d="m319.69 226.48c39.209 2.48 82.368-11.791 112.52 14.326 31.643 27.414 32.291 74.446 38.709 116.68 8.342 54.896 33.529 114.39 3.383 160.34-32.896 50.139-96.147 68.614-154.61 70.151-60.007 1.577-124.13-14.067-162.65-61.809-36.538-45.286-30.241-110.07-23.315-168.68 5.905-49.968 18.677-103.56 58.831-131.85 36.443-25.673 83.161-1.946 127.14 0.836z" clip-rule="evenodd" fill="#FCFAF1" fill-rule="evenodd"/>
<path d="m201.21 72.962c57.372 4.2677 103.04 52.556 128.01 106.25 19.561 42.074-7.754 86.309-17.255 131.96-9.772 46.955-6e-3 103.13-37.538 131.33-43.064 32.35-101.92 30.949-151.33 10.551-54.231-22.386-103.02-63.23-117.94-121.71-15.455-60.566 5.3567-123.82 42.726-173.06 37.725-49.718 92.453-89.85 153.33-85.321z" clip-rule="evenodd" fill="#FCFAF1" fill-rule="evenodd"/>
<path d="m267.49 108.23c39.872-17.85 82.899-9.4853 123.71 5.913 42.909 16.19 93.016 34.497 104.68 80.26 11.441 44.877-26.584 83.111-53.595 120.13-24.726 33.889-49.801 70.043-90.237 77.006-44.871 7.728-90.273-8.265-123.78-40.148-37.615-35.789-70.377-84.369-61.957-136.57 8.344-51.726 54.734-85.8 101.18-106.59z" clip-rule="evenodd" fill="#FCFAF1" fill-rule="evenodd"/>
<path d="m478.02 96.644c33.15 3.4034 61.33 25.369 79.033 54.62 15.388 25.425 14.493 56.785 5.697 85.381-7.811 25.393-26.507 43.887-49.272 56.277-24.063 13.096-51.221 22.319-76.594 12.224-27.81-11.065-46.77-36.319-56.925-65.347-12.354-35.317-24.369-76.434-3.387-107.06 21.777-31.792 64.017-39.933 101.45-36.09z" clip-rule="evenodd" fill="#FCFAF1" fill-rule="evenodd"/>
<path d="m531.75 226.64c33.814 1.109 71.56-8.805 95.176 16.305 25.464 27.075 28.247 69.097 19.727 105.86-8.394 36.223-31.389 66.728-63.566 83.318-32.712 16.865-72.031 21.222-104.13 3.142-30.627-17.25-40.381-54.558-49.214-89.51-9.373-37.088-25.587-80.646-1.033-109.32 24.091-28.131 66.773-10.991 103.04-9.801z" clip-rule="evenodd" fill="#FCFAF1" fill-rule="evenodd"/>
<path d="m381.45 6.9309c61.035-12.409 127.17-8.43 174.37 33.544 49.872 44.348 85.987 116.01 67.213 181.28-16.981 59.032-91.499 64.257-145.34 90.34-38.461 18.632-74.375 45.346-115.9 36.214-46.975-10.329-88.173-40.924-109.14-85.697-23.561-50.308-30.597-109.78-5.624-159.35 26.527-52.656 78.186-84.893 134.43-96.328z" clip-rule="evenodd" fill="#FCFAF1" fill-rule="evenodd"/>
<path d="m659.21 48.983c61.035-12.409 127.17-8.43 174.37 33.544 49.872 44.348 85.987 116.01 67.213 181.28-16.98 59.032-91.499 64.257-145.34 90.34-38.461 18.632-74.375 45.346-115.9 36.214-46.975-10.328-88.173-40.923-109.14-85.697-23.561-50.308-30.597-109.78-5.624-159.35 26.527-52.656 78.186-84.893 134.43-96.328z" clip-rule="evenodd" fill="#FCFAF1" fill-rule="evenodd"/>
<path d="m456.19 289.89c30.247-51.829 100.94-43.556 158.73-52.535 41.888-6.509 84.158-13.479 120.45 9.155 38.782 24.187 65.961 64.463 72.119 110.94 6.636 50.098-6.552 100.71-39.092 138.38-36.731 42.529-86.47 73.788-141.45 70.661-61.205-3.48-120.06-33.888-153.1-87.409-34.662-56.148-50.943-132.16-17.656-189.2z" clip-rule="evenodd" fill="#FCFAF1" fill-rule="evenodd"/>
<path d="m286.59 354.92c-1.225-59.447 61.567-91.13 104.91-130.08 31.416-28.23 62.915-57.052 104.48-58.077 44.415-1.095 87.376 17.469 116.06 52.638 30.917 37.905 45.662 87.041 37.806 136.01-8.868 55.274-34.235 108.3-81.394 135.68-52.495 30.482-116.7 37.364-171.24 11.016-57.215-27.642-109.27-81.769-110.62-147.19z" clip-rule="evenodd" fill="#FCFAF1" fill-rule="evenodd"/>
<path d="m704.38 372.95c-0.643-31.225 32.339-47.866 55.105-68.324 16.502-14.827 33.046-29.966 54.879-30.505 23.329-0.575 45.894 9.176 60.961 27.649 16.24 19.91 23.984 45.719 19.858 71.438-4.658 29.033-17.982 56.884-42.753 71.268-27.573 16.011-61.299 19.626-89.945 5.786-30.053-14.519-57.397-42.949-58.105-77.312z" clip-rule="evenodd" fill="#FCFAF1" fill-rule="evenodd"/>
<path d="m88.648 341.61c28.302-10.71 54.142 16.278 80.17 32.012 18.865 11.404 38.028 22.75 45.566 43.996 8.056 22.703 6.436 47.99-5.568 68.735-12.937 22.359-34.002 38.288-58.818 42.541-28.012 4.801-57.742 0.718-78.871-18.942-23.519-21.885-37.705-53.808-34.315-86.38 3.5567-34.172 20.69-70.177 51.836-81.962z" clip-rule="evenodd" fill="#FCFAF1" fill-rule="evenodd"/>
</svg>
