<svg width="906" height="589" viewBox="0 0 906 589" fill="none" xmlns="http://www.w3.org/2000/svg">
<path fill-rule="evenodd" clip-rule="evenodd" d="M319.692 226.485C358.901 228.965 402.06 214.694 432.207 240.811C463.85 268.225 464.498 315.257 470.916 357.495C479.258 412.391 504.445 471.885 474.299 517.831C441.403 567.97 378.152 586.445 319.692 587.982C259.685 589.559 195.562 573.915 157.041 526.173C120.503 480.887 126.8 416.105 133.726 357.495C139.631 307.527 152.403 253.937 192.557 225.649C229 199.976 275.718 223.703 319.692 226.485Z" fill="#FCFAF1"/>
<path fill-rule="evenodd" clip-rule="evenodd" d="M201.208 72.9616C258.58 77.2293 304.251 125.518 329.214 179.211C348.775 221.285 321.46 265.52 311.959 311.172C302.187 358.127 311.953 414.306 274.421 442.502C231.357 474.852 172.505 473.451 123.092 453.053C68.8612 430.667 20.0703 389.823 5.14893 331.347C-10.3058 270.781 10.5056 207.532 47.8752 158.283C85.6001 108.565 140.328 68.4328 201.208 72.9616Z" fill="#FCFAF1"/>
<path fill-rule="evenodd" clip-rule="evenodd" d="M267.493 108.234C307.365 90.3836 350.392 98.7487 391.204 114.147C434.113 130.337 484.22 148.644 495.887 194.407C507.328 239.284 469.303 277.518 442.292 314.54C417.566 348.429 392.491 384.583 352.055 391.546C307.184 399.274 261.782 383.281 228.27 351.398C190.655 315.609 157.893 267.029 166.313 214.827C174.657 163.101 221.047 129.027 267.493 108.234Z" fill="#FCFAF1"/>
<path fill-rule="evenodd" clip-rule="evenodd" d="M478.019 96.6436C511.169 100.047 539.349 122.013 557.052 151.264C572.44 176.689 571.545 208.049 562.749 236.645C554.938 262.038 536.242 280.532 513.477 292.922C489.414 306.018 462.256 315.241 436.883 305.146C409.073 294.081 390.113 268.827 379.958 239.799C367.604 204.482 355.589 163.365 376.571 132.734C398.348 100.942 440.588 92.8006 478.019 96.6436Z" fill="#FCFAF1"/>
<path fill-rule="evenodd" clip-rule="evenodd" d="M531.753 226.642C565.567 227.751 603.313 217.837 626.929 242.947C652.393 270.022 655.176 312.044 646.656 348.811C638.262 385.034 615.267 415.539 583.09 432.129C550.378 448.994 511.059 453.351 478.957 435.271C448.33 418.021 438.576 380.713 429.743 345.761C420.37 308.673 404.156 265.115 428.71 236.443C452.801 208.312 495.483 225.452 531.753 226.642Z" fill="#FCFAF1"/>
<path fill-rule="evenodd" clip-rule="evenodd" d="M381.447 6.9309C442.482 -5.4784 508.617 -1.49907 555.821 40.4753C605.693 84.8228 641.808 156.485 623.034 221.755C606.053 280.787 531.535 286.012 477.691 312.095C439.23 330.727 403.316 357.441 361.786 348.309C314.811 337.98 273.613 307.385 252.644 262.612C229.083 212.304 222.047 152.832 247.02 103.259C273.547 50.6025 325.206 18.3657 381.447 6.9309Z" fill="#FCFAF1"/>
<path fill-rule="evenodd" clip-rule="evenodd" d="M659.213 48.983C720.248 36.5737 786.383 40.553 833.587 82.5274C883.459 126.875 919.574 198.537 900.8 263.807C883.82 322.839 809.301 328.064 755.457 354.147C716.996 372.779 681.082 399.493 639.553 390.361C592.578 380.033 551.38 349.438 530.41 304.664C506.849 254.356 499.813 194.884 524.786 145.311C551.313 92.6546 602.972 60.4177 659.213 48.983Z" fill="#FCFAF1"/>
<path fill-rule="evenodd" clip-rule="evenodd" d="M456.188 289.893C486.435 238.064 557.13 246.337 614.92 237.358C656.808 230.849 699.078 223.879 735.372 246.513C774.154 270.7 801.333 310.976 807.491 357.456C814.127 407.554 800.939 458.163 768.399 495.838C731.668 538.367 681.929 569.626 626.945 566.499C565.74 563.019 506.884 532.611 473.844 479.09C439.182 422.942 422.901 346.929 456.188 289.893Z" fill="#FCFAF1"/>
<path fill-rule="evenodd" clip-rule="evenodd" d="M286.588 354.92C285.363 295.473 348.155 263.79 391.499 224.843C422.915 196.613 454.414 167.791 495.978 166.766C540.393 165.671 583.354 184.235 612.039 219.404C642.956 257.309 657.701 306.445 649.845 355.411C640.977 410.685 615.61 463.709 568.451 491.093C515.956 521.575 451.747 528.457 397.209 502.109C339.994 474.467 287.935 420.34 286.588 354.92Z" fill="#FCFAF1"/>
<path fill-rule="evenodd" clip-rule="evenodd" d="M704.382 372.95C703.739 341.725 736.721 325.084 759.487 304.626C775.989 289.799 792.533 274.66 814.366 274.121C837.695 273.546 860.26 283.297 875.327 301.77C891.567 321.68 899.311 347.489 895.185 373.208C890.527 402.241 877.203 430.092 852.432 444.476C824.859 460.487 791.133 464.102 762.487 450.262C732.434 435.743 705.09 407.313 704.382 372.95Z" fill="#FCFAF1"/>
<path fill-rule="evenodd" clip-rule="evenodd" d="M88.6475 341.611C116.95 330.901 142.79 357.889 168.817 373.623C187.682 385.027 206.845 396.373 214.383 417.619C222.439 440.322 220.819 465.609 208.815 486.354C195.878 508.713 174.813 524.642 149.997 528.895C121.985 533.696 92.2548 529.613 71.1263 509.953C47.6076 488.068 33.4213 456.145 36.8115 423.573C40.3682 389.401 57.5011 353.396 88.6475 341.611Z" fill="#FCFAF1"/>
</svg>
